<svg xmlns="http://www.w3.org/2000/svg" width="200.171" height="140.12" viewBox="0 0 200.171 140.12">
  <path id="users" d="M30.026,92.051A20.017,20.017,0,1,0,10.009,72.034,20.036,20.036,0,0,0,30.026,92.051Zm140.12,0a20.017,20.017,0,1,0-20.017-20.017A20.036,20.036,0,0,0,170.146,92.051Zm10.009,10.009H160.137a19.958,19.958,0,0,0-14.106,5.817,45.75,45.75,0,0,1,23.489,34.217h20.643a10,10,0,0,0,10.009-10.009V122.077A20.036,20.036,0,0,0,180.154,102.06Zm-80.069,0a35.03,35.03,0,1,0-35.03-35.03A35.012,35.012,0,0,0,100.086,102.06Zm24.021,10.009h-2.6a48.364,48.364,0,0,1-42.849,0h-2.6A36.04,36.04,0,0,0,40.034,148.1v9.008A15.017,15.017,0,0,0,55.047,172.12h90.077a15.017,15.017,0,0,0,15.013-15.013V148.1A36.04,36.04,0,0,0,124.106,112.069ZM54.14,107.877a19.958,19.958,0,0,0-14.106-5.817H20.017A20.036,20.036,0,0,0,0,122.077v10.009a10,10,0,0,0,10.009,10.009H30.62a45.865,45.865,0,0,1,23.52-34.217Z" transform="translate(0 -32)" fill="#0d1321"/>
</svg>
