<svg xmlns="http://www.w3.org/2000/svg" width="175.158" height="140.12" viewBox="0 0 175.158 140.12">
  <path id="people-carry" d="M35.019,26.272A13.136,13.136,0,1,0,21.883,13.136,13.14,13.14,0,0,0,35.019,26.272Zm105.09,0a13.136,13.136,0,1,0-13.136-13.136A13.14,13.14,0,0,0,140.109,26.272Zm34.4,101.833L162.468,98,151.22,110.7l-.547,4.981,7.581,18.938a8.75,8.75,0,0,0,8.128,5.5,8.509,8.509,0,0,0,3.257-.629,8.754,8.754,0,0,0,4.871-11.385Zm-9.36-57.416-5.063-21.948a17.736,17.736,0,0,0-10.263-12.288,16.886,16.886,0,0,0-15.353.9,29.983,29.983,0,0,0-13.164,16.256l-3.092,9.277-4.379,2.791V39.409a4.392,4.392,0,0,0-4.379-4.379H65.67a4.392,4.392,0,0,0-4.379,4.379V65.681L56.885,62.89l-3.092-9.277A29.77,29.77,0,0,0,40.629,37.356a16.891,16.891,0,0,0-15.353-.9A17.736,17.736,0,0,0,15.014,48.741L9.978,70.689a17.534,17.534,0,0,0,3.941,15.517L32.31,106.978l2.764,25.342a8.764,8.764,0,0,0,8.7,7.8c.328,0,.629-.027.958-.055a8.744,8.744,0,0,0,7.745-9.661l-2.764-25.4a17.491,17.491,0,0,0-4.269-9.579L33.6,82.019,38.413,62.78l1.861,5.583a17.7,17.7,0,0,0,6.7,8.922l13.985,8.894a11.652,11.652,0,0,0,4.707,1.368h43.787a11.652,11.652,0,0,0,4.707-1.368l13.985-8.894a17.588,17.588,0,0,0,6.7-8.922l1.861-5.583,4.817,19.239-11.85,13.41a17.491,17.491,0,0,0-4.269,9.579l-2.764,25.4a8.763,8.763,0,0,0,7.745,9.661c.328.027.629.055.958.055a8.762,8.762,0,0,0,8.7-7.8l2.764-25.342,18.391-20.772A17.614,17.614,0,0,0,165.15,70.689ZM12.66,98,.619,128.106a8.756,8.756,0,0,0,16.256,6.513l7.581-18.938-.547-4.981L12.66,98Z" transform="translate(0.015)" fill="#0d1321"/>
</svg>
